<svg version="1.1" xmlns="http://www.w3.org/2000/svg" xmlns:xlink="http://www.w3.org/1999/xlink" x="0px" y="0px" width="512px" height="512px" viewBox="0 0 512 512" style="enable-background:new 0 0 512 512;" xml:space="preserve">
<g id="C_-_69_x2C__Friends_x2C__business_x2C__group_x2C__people_x2C__protection_x2C__team_x2C__workgroup">
<g>
<g>
<g id="XMLID_1017_">
<g>
<g>
<polygon style="fill:#3A2E26;" points="199.66,405.54 199.66,452.28 68.19,452.28 68.19,358.81 199.66,358.81 						" id="id_126"></polygon>
</g>
<g>
<g>
<polygon style="fill:#2C3E50;" points="312.35,358.81 312.35,405.54 200.02,405.54 199.66,405.54 199.66,358.81 
								227.46,358.81 227.46,312.08 284.54,312.08 284.54,358.81 							" id="id_127"></polygon>
</g>
</g>
<g>
<polygon style="fill:#3A2E26;" points="312.35,405.54 312.35,358.81 443.82,358.81 443.82,452.28 312.35,452.28 						" id="id_128"></polygon>
</g>
<g>
<path style="fill:#54BAD3;" d="M199.66,358.81H68.19H40.38v-75.1c0-25.52,20.97-46.4,46.61-46.4h75.11h18.82
							c25.6,0,46.54,20.85,46.54,46.32v28.45v46.729H199.66z M124.53,274.69h18.81V256h-18.81V274.69z M143.34,284.04h-18.81v18.69
							h18.81V284.04z" id="id_129"></path>
</g>
<g>
<path style="fill:#F3B840;" d="M312.35,358.81h-27.81V312.08v-28.45c0-25.47,20.95-46.32,46.54-46.32h18.47h75.46
							c25.641,0,46.61,20.88,46.61,46.39v75.109h-27.8H312.35z M387.5,284.04h-18.81v18.69h18.81V284.04z M387.5,274.69V256h-18.81
							v18.69H387.5z" id="id_130"></path>
</g>
<g>
<path style="fill:#E35D54;" d="M265.42,237.31h-18.81V256h18.81V237.31z M265.4,227.96v-18.69H246.59v18.69H265.4z
							 M349.55,237.31h-18.47c-25.59,0-46.54,20.85-46.54,46.32v28.45h-57.08v-28.45c0-25.47-20.94-46.32-46.54-46.32H162.1
							c0-25.48,21.68-46.74,47.28-46.74h93.92C328.94,190.57,349.55,211.79,349.55,237.31z" id="id_131"></path>
</g>
<g>
<path style="fill:#FBD5A6;" d="M378.08,107.85c28.24,0,51.13,22.7,51.13,50.71c0,28-22.89,50.7-51.13,50.7
							c-28.23,0-51.12-22.7-51.12-50.7C326.96,130.55,349.85,107.85,378.08,107.85z" id="id_132"></path>
</g>
<g>
<path style="fill:#FBD5A6;" d="M256,59.72c28.23,0,51.13,22.7,51.13,50.71c0,28-22.899,50.71-51.13,50.71
							c-28.23,0-51.12-22.71-51.12-50.71C204.88,82.42,227.77,59.72,256,59.72z" id="id_133"></path>
</g>
<g>
<path style="fill:#FBD5A6;" d="M133.92,106.45c28.24,0,51.12,23.01,51.12,51.41c0,28.39-22.88,51.4-51.12,51.4
							c-28.23,0-51.13-23.01-51.13-51.4C82.79,129.46,105.69,106.45,133.92,106.45z" id="id_134"></path>
</g>
<g>
<rect x="368.69" y="284.04" width="18.81" height="18.69" id="id_135"></rect>
</g>
<g>
<rect x="368.69" y="256" width="18.81" height="18.69" id="id_136"></rect>
</g>
<g>
<rect x="246.61" y="237.31" width="18.81" height="18.69" id="id_137"></rect>
</g>
<g>
<rect x="246.59" y="209.27" width="18.811" height="18.69" id="id_138"></rect>
</g>
<g>
<rect x="124.53" y="284.04" width="18.81" height="18.69" id="id_139"></rect>
</g>
<g>
<rect x="124.53" y="256" width="18.81" height="18.69" id="id_140"></rect>
</g>
</g>
<g>
<g>
<path d="M227.46,363.81H40.38c-2.761,0-5-2.238-5-5v-75.1c0-28.342,23.152-51.4,51.61-51.4h93.93
							c28.419,0,51.54,23.022,51.54,51.32v75.18C232.46,361.571,230.221,363.81,227.46,363.81z M45.38,353.81h177.08v-70.18
							c0-22.784-18.635-41.32-41.54-41.32H86.99c-22.944,0-41.61,18.572-41.61,41.4V353.81z" id="id_141"></path>
</g>
<g>
<path d="M133.92,214.26c-30.95,0-56.13-25.301-56.13-56.4c0-31.104,25.18-56.41,56.13-56.41
							c30.945,0,56.12,25.305,56.12,56.41C190.04,188.959,164.865,214.26,133.92,214.26z M133.92,111.45
							c-25.436,0-46.13,20.819-46.13,46.41c0,25.585,20.694,46.4,46.13,46.4c25.431,0,46.12-20.815,46.12-46.4
							C180.04,132.27,159.351,111.45,133.92,111.45z" id="id_142"></path>
</g>
<g>
<path d="M199.66,457.28H68.19c-2.761,0-5-2.238-5-5V293.39c0-2.762,2.239-5,5-5s5,2.238,5,5V447.28h121.47V293.39
							c0-2.762,2.239-5,5-5s5,2.238,5,5V452.28C204.66,455.042,202.421,457.28,199.66,457.28z" id="id_143"></path>
</g>
<g>
<path d="M471.62,363.81H284.54c-2.762,0-5-2.238-5-5v-75.18c0-28.298,23.121-51.32,51.54-51.32h93.93
							c28.458,0,51.61,23.054,51.61,51.39v75.109C476.62,361.571,474.382,363.81,471.62,363.81z M289.54,353.81h177.08V283.7
							c0-22.822-18.666-41.39-41.61-41.39h-93.93c-22.905,0-41.54,18.536-41.54,41.32V353.81z" id="id_144"></path>
</g>
<g>
<path d="M378.08,214.26c-30.944,0-56.12-24.987-56.12-55.7c0-30.719,25.176-55.71,56.12-55.71
							c30.95,0,56.13,24.991,56.13,55.71C434.21,189.273,409.03,214.26,378.08,214.26z M378.08,112.85
							c-25.431,0-46.12,20.505-46.12,45.71c0,25.199,20.689,45.7,46.12,45.7c25.437,0,46.13-20.501,46.13-45.7
							C424.21,133.355,403.517,112.85,378.08,112.85z" id="id_145"></path>
</g>
<g>
<path d="M443.82,457.28H312.35c-2.762,0-5-2.238-5-5V293.39c0-2.762,2.238-5,5-5s5,2.238,5,5V447.28H438.82V293.39
							c0-2.762,2.238-5,5-5s5,2.238,5,5V452.28C448.82,455.042,446.582,457.28,443.82,457.28z" id="id_146"></path>
</g>
<g>
<path d="M284.54,317.08h-57.08c-2.761,0-5-2.238-5-5s2.239-5,5-5h57.08c2.762,0,5,2.238,5,5S287.302,317.08,284.54,317.08z" id="id_147"></path>
</g>
<g>
<path d="M349.55,242.31c-2.762,0-5-2.239-5-5c0-23.016-18.505-41.74-41.25-41.74h-93.92c-22.918,0-42.28,19.115-42.28,41.74
							c0,2.761-2.239,5-5,5s-5-2.239-5-5c0-28.046,23.941-51.74,52.28-51.74h93.92c28.26,0,51.25,23.21,51.25,51.74
							C354.55,240.071,352.312,242.31,349.55,242.31z" id="id_148"></path>
</g>
<g>
<path d="M256,166.14c-30.945,0-56.12-24.991-56.12-55.71S225.055,54.72,256,54.72c30.95,0,56.13,24.991,56.13,55.71
							S286.95,166.14,256,166.14z M256,64.72c-25.431,0-46.12,20.505-46.12,45.71s20.689,45.71,46.12,45.71
							c25.437,0,46.13-20.505,46.13-45.71S281.437,64.72,256,64.72z" id="id_149"></path>
</g>
<g>
<path d="M312.71,410.54H200.02c-2.761,0-5-2.238-5-5s2.239-5,5-5h112.69c2.762,0,5,2.238,5,5S315.472,410.54,312.71,410.54z" id="id_150"></path>
</g>
</g>
</g>
</g>
</g>
</g>
<g id="Layer_1">
</g>
</svg>