<svg xmlns="http://www.w3.org/2000/svg" xmlns:xlink="http://www.w3.org/1999/xlink" viewBox="0 0 64 64"><defs><style>.cls-1{fill:url(#linear-gradient);}.cls-2{fill:url(#linear-gradient-2);}</style><linearGradient id="linear-gradient" x1="8.39" y1="20.88" x2="52.19" y2="20.88" gradientUnits="userSpaceOnUse"><stop offset="0" stop-color="#abe9f5" id="id_103"></stop><stop offset="0.18" stop-color="#42c4de" id="id_104"></stop><stop offset="0.57" stop-color="#1c30e6" id="id_105"></stop><stop offset="0.85" stop-color="#1f2982" id="id_106"></stop><stop offset="1" stop-color="#080d36" id="id_107"></stop></linearGradient><linearGradient id="linear-gradient-2" x1="12.02" y1="43.13" x2="55.61" y2="43.13" xlink:href="#linear-gradient"></linearGradient></defs><g id="Layer_82" data-name="Layer 82"><path class="cls-1" d="M12.14,28.52a1.51,1.51,0,0,0,1.92.84l9.49-3.63a1.5,1.5,0,0,0-1.07-2.8l-6.41,2.45c7-14.79,28.85-12.93,33.16,3a1.5,1.5,0,0,0,2.9-.78c-5-18.42-30.2-20.78-38.61-3.81l-2.23-5.83A1.5,1.5,0,0,0,8.49,19S12.1,28.49,12.14,28.52Z" id="id_101"></path><path class="cls-2" d="M55.51,44.44,52.09,35.5a1.59,1.59,0,0,0-.45-.61,1.51,1.51,0,0,0-1.49-.25l-8.94,3.42a1.5,1.5,0,0,0,1.07,2.8l5.86-2.24c-7,14.79-28.85,12.93-33.17-3a1.5,1.5,0,0,0-1.83-1.06,1.52,1.52,0,0,0-1.07,1.84c5,18.42,30.21,20.78,38.61,3.8l2,5.29A1.5,1.5,0,0,0,55.51,44.44Z" id="id_102"></path></g></svg>